HIERARCHY
ROOT Hips
{
    OFFSET   0.000000   0.000000   0.000000
    CHANNELS 6 Xposition Yposition Zposition Zrotation Xrotation Yrotation
    JOINT Chest
    {
        OFFSET   0.000000   8.007230   0.000000
        CHANNELS 3 Zrotation Xrotation Yrotation
        JOINT Chest2
        {
            OFFSET   0.000000  22.077100   0.000000
            CHANNELS 3 Zrotation Xrotation Yrotation
            JOINT Neck
            {
                OFFSET   0.000000  23.254800   0.000000
                CHANNELS 3 Zrotation Xrotation Yrotation
                JOINT Head
                {
                    OFFSET   0.000010  14.370000   1.956600
                    CHANNELS 3 Zrotation Xrotation Yrotation
                    End Site
                    {
                        OFFSET   0.000000  19.566000   0.000000
                    }
                }
            }
            JOINT LeftCollar
            {
                OFFSET   3.911900  19.017000  -0.467062
                CHANNELS 3 Zrotation Xrotation Yrotation
                JOINT LeftShoulder
                {
                    OFFSET  10.383700   0.000000   0.000000
                    CHANNELS 3 Zrotation Xrotation Yrotation
                    JOINT LeftElbow
                    {
                        OFFSET  26.662100   0.001193   0.000835
                        CHANNELS 3 Zrotation Xrotation Yrotation
                        JOINT LeftWrist
                        {
                            OFFSET  28.869000  -0.000058  -0.000075
                            CHANNELS 3 Zrotation Xrotation Yrotation
                            JOINT LeftFinger0
                            {
                                OFFSET   2.044660  -2.323460   3.252850
                                CHANNELS 3 Zrotation Xrotation Yrotation
                                JOINT LeftFinger01
                                {
                                    OFFSET   3.088130   0.000000   0.000000
                                    CHANNELS 3 Zrotation Xrotation Yrotation
                                    JOINT LeftFinger02
                                    {
                                        OFFSET   2.639450   0.000000   0.000000
                                        CHANNELS 3 Zrotation Xrotation Yrotation
                                        End Site
                                        {
                                            OFFSET   2.582190   0.000000   0.000000
                                        }
                                    }
                                }
                            }
                            JOINT LeftFinger1
                            {
                                OFFSET   8.364480   0.000000   3.252850
                                CHANNELS 3 Zrotation Xrotation Yrotation
                                JOINT LeftFinger11
                                {
                                    OFFSET   4.646920   0.000000   0.000000
                                    CHANNELS 3 Zrotation Xrotation Yrotation
                                    JOINT LeftFinger12
                                    {
                                        OFFSET   2.323460   0.000000   0.000000
                                        CHANNELS 3 Zrotation Xrotation Yrotation
                                        End Site
                                        {
                                            OFFSET   2.273050   0.000000   0.000000
                                        }
                                    }
                                }
                            }
                            JOINT LeftFinger2
                            {
                                OFFSET   8.364490   0.000016   1.078090
                                CHANNELS 3 Zrotation Xrotation Yrotation
                                JOINT LeftFinger21
                                {
                                    OFFSET   5.111620   0.000000   0.000000
                                    CHANNELS 3 Zrotation Xrotation Yrotation
                                    JOINT LeftFinger22
                                    {
                                        OFFSET   2.788150   0.000012   0.000000
                                        CHANNELS 3 Zrotation Xrotation Yrotation
                                        End Site
                                        {
                                            OFFSET   2.727660   0.000000   0.000000
                                        }
                                    }
                                }
                            }
                            JOINT LeftFinger3
                            {
                                OFFSET   7.899780   0.000014  -1.078090
                                CHANNELS 3 Zrotation Xrotation Yrotation
                                JOINT LeftFinger31
                                {
                                    OFFSET   4.646930   0.000000   0.000000
                                    CHANNELS 3 Zrotation Xrotation Yrotation
                                    JOINT LeftFinger32
                                    {
                                        OFFSET   2.323470   0.000000   0.000000
                                        CHANNELS 3 Zrotation Xrotation Yrotation
                                        End Site
                                        {
                                            OFFSET   2.273050   0.000000   0.000000
                                        }
                                    }
                                }
                            }
                            JOINT LeftFinger4
                            {
                                OFFSET   7.435090   0.000000  -3.252850
                                CHANNELS 3 Zrotation Xrotation Yrotation
                                JOINT LeftFinger41
                                {
                                    OFFSET   3.717550   0.000000   0.000000
                                    CHANNELS 3 Zrotation Xrotation Yrotation
                                    JOINT LeftFinger42
                                    {
                                        OFFSET   1.858770   0.000000   0.000000
                                        CHANNELS 3 Zrotation Xrotation Yrotation
                                        End Site
                                        {
                                            OFFSET   1.818440   0.000000   0.000000
                                        }
                                    }
                                }
                            }
                        }
                    }
                }
            }
            JOINT RightCollar
            {
                OFFSET  -3.911900  19.017000  -0.467063
                CHANNELS 3 Zrotation Xrotation Yrotation
                JOINT RightShoulder
                {
                    OFFSET -10.383700   0.000023   0.000000
                    CHANNELS 3 Zrotation Xrotation Yrotation
                    JOINT RightElbow
                    {
                        OFFSET -26.662100   0.001246   0.001011
                        CHANNELS 3 Zrotation Xrotation Yrotation
                        JOINT RightWrist
                        {
                            OFFSET -28.869000  -0.000026  -0.000078
                            CHANNELS 3 Zrotation Xrotation Yrotation
                            JOINT RightFinger0
                            {
                                OFFSET  -2.044660  -2.323490   3.252850
                                CHANNELS 3 Zrotation Xrotation Yrotation
                                JOINT RightFinger01
                                {
                                    OFFSET  -3.088130   0.000000   0.000000
                                    CHANNELS 3 Zrotation Xrotation Yrotation
                                    JOINT RightFinger02
                                    {
                                        OFFSET  -2.639460   0.000000   0.000000
                                        CHANNELS 3 Zrotation Xrotation Yrotation
                                        End Site
                                        {
                                            OFFSET  -2.582190   0.000000   0.000000
                                        }
                                    }
                                }
                            }
                            JOINT RightFinger1
                            {
                                OFFSET  -8.364480   0.000000   3.252850
                                CHANNELS 3 Zrotation Xrotation Yrotation
                                JOINT RightFinger11
                                {
                                    OFFSET  -4.646920   0.000000   0.000000
                                    CHANNELS 3 Zrotation Xrotation Yrotation
                                    JOINT RightFinger12
                                    {
                                        OFFSET  -2.323470   0.000000   0.000000
                                        CHANNELS 3 Zrotation Xrotation Yrotation
                                        End Site
                                        {
                                            OFFSET  -2.273050   0.000000   0.000000
                                        }
                                    }
                                }
                            }
                            JOINT RightFinger2
                            {
                                OFFSET  -8.364480   0.000000   1.078090
                                CHANNELS 3 Zrotation Xrotation Yrotation
                                JOINT RightFinger21
                                {
                                    OFFSET  -5.111620   0.000000   0.000000
                                    CHANNELS 3 Zrotation Xrotation Yrotation
                                    JOINT RightFinger22
                                    {
                                        OFFSET  -2.788160   0.000000   0.000000
                                        CHANNELS 3 Zrotation Xrotation Yrotation
                                        End Site
                                        {
                                            OFFSET  -2.727660   0.000000   0.000000
                                        }
                                    }
                                }
                            }
                            JOINT RightFinger3
                            {
                                OFFSET  -7.899780   0.000000  -1.078090
                                CHANNELS 3 Zrotation Xrotation Yrotation
                                JOINT RightFinger31
                                {
                                    OFFSET  -4.646930   0.000000   0.000000
                                    CHANNELS 3 Zrotation Xrotation Yrotation
                                    JOINT RightFinger32
                                    {
                                        OFFSET  -2.323470   0.000000   0.000000
                                        CHANNELS 3 Zrotation Xrotation Yrotation
                                        End Site
                                        {
                                            OFFSET  -2.273050   0.000000   0.000000
                                        }
                                    }
                                }
                            }
                            JOINT RightFinger4
                            {
                                OFFSET  -7.435090   0.000000  -3.252850
                                CHANNELS 3 Zrotation Xrotation Yrotation
                                JOINT RightFinger41
                                {
                                    OFFSET  -3.717550   0.000000   0.000000
                                    CHANNELS 3 Zrotation Xrotation Yrotation
                                    JOINT RightFinger42
                                    {
                                        OFFSET  -1.858760   0.000000   0.000000
                                        CHANNELS 3 Zrotation Xrotation Yrotation
                                        End Site
                                        {
                                            OFFSET  -1.818440   0.000000   0.000000
                                        }
                                    }
                                }
                            }
                        }
                    }
                }
            }
        }
    }
    JOINT LeftHip
    {
        OFFSET   9.783010   0.000000   0.000000
        CHANNELS 3 Zrotation Xrotation Yrotation
        JOINT LeftKnee
        {
            OFFSET   0.000073 -41.789100   0.001749
            CHANNELS 3 Zrotation Xrotation Yrotation
            JOINT LeftAnkle
            {
                OFFSET   0.000111 -41.133200  -0.000179
                CHANNELS 3 Zrotation Xrotation Yrotation
                JOINT LeftToe
                {
                    OFFSET   0.000000  -6.358960  14.674500
                    CHANNELS 3 Zrotation Xrotation Yrotation
                    End Site
                    {
                        OFFSET   0.000000   0.000000   3.913200
                    }
                }
            }
        }
    }
    JOINT RightHip
    {
        OFFSET  -9.783010   0.000000   0.000000
        CHANNELS 3 Zrotation Xrotation Yrotation
        JOINT RightKnee
        {
            OFFSET   0.000424 -41.789200   0.005205
            CHANNELS 3 Zrotation Xrotation Yrotation
            JOINT RightAnkle
            {
                OFFSET   0.000000 -41.133200  -0.000155
                CHANNELS 3 Zrotation Xrotation Yrotation
                JOINT RightToe
                {
                    OFFSET   0.000000  -6.358960  14.674500
                    CHANNELS 3 Zrotation Xrotation Yrotation
                    End Site
                    {
                        OFFSET   0.000000   0.000000   3.913200
                    }
                }
            }
        }
    }
}
MOTION
Frames: 4
Frame Time:   0.016667
 -1.489330  89.527500  -4.926640  -2.091030 -12.945500   2.014050   0.204363   8.463560  -0.509812   0.494080  16.924900  -1.068350   1.384120  -1.433940   0.025465   2.278340  -2.902620   2.226580  -7.386740  -3.228400   0.261714 -69.340200  18.702800  -1.651860  -1.240660  -6.236250 -20.128600  13.256500  -6.739530   1.786750  38.740900  33.684900 -55.410200 -34.741500   0.000067   0.000000 -12.370800   0.000000   0.000000 -39.550500   3.829710  -4.621970 -32.487900  -0.001964   0.003366 -22.759800  -0.000834   0.000193 -32.222700  -3.692970   5.831780 -48.616100  -0.003067  -0.002004 -32.378300  -0.000130   0.009434 -31.778500  -3.645230   5.859330 -47.947500  -0.004960  -0.002739 -31.933000  -0.003516  -0.001317 -41.613100  -4.592920   5.150870 -62.729400  -0.011586  -0.002472 -41.777800   0.002354   0.000000  13.714200  -2.215590   9.007030  65.390700  14.355500  -1.909730   2.498220  -9.822850   8.158690 -10.091400   2.164750  -3.859610 -40.205700  26.440600  59.171700  23.985600   0.003623  -0.001538   6.992810   0.007680  -0.007063  33.122500  10.919800  16.189400  28.374900  -0.002230   0.007867  19.862400   0.010541   0.001039  28.403100   5.002000   9.158940  42.521500  -0.002027   0.008235  28.319300   0.004335   0.004317  28.137200   3.520420   6.550080  34.542300  -0.004422   0.016431  23.005100   0.004747   0.010604  34.718000   0.303991   0.439684  52.078400   0.011682   0.016129  34.684200   0.008583   0.005482   3.000000  13.369500  -0.014917   1.724630   0.715099  10.718200  -2.430310  -1.625350  -1.172890   0.000000   0.000000  -0.000000   5.542380  12.034400  -2.939180  -0.750410   4.027770 -21.380200  -0.177949  -4.962220   3.423350   0.000000   0.000000   0.000000
 -1.508240  89.527500  -4.891740  -2.101990 -12.962700   1.974070   0.227114   8.458390  -0.535952   0.544359  16.914200  -1.124950   1.363940  -1.448240   0.025476   2.245230  -2.931650   2.362400  -7.387700  -3.255150   0.377332 -69.467100  18.910700  -2.024430  -1.115710  -6.208970 -20.016200  13.082900  -6.512110   1.831830  38.904600  33.963300 -55.798400 -34.712700   0.000034   0.000065 -12.356400   0.000052  -0.000034 -39.520200   3.997630  -4.831080 -32.477500  -0.001964   0.003320 -22.745000  -0.000838   0.000199 -32.150600  -3.694240   5.851800 -48.508800  -0.003068  -0.002012 -32.306900  -0.000139   0.009490 -31.757000  -3.652590   5.876210 -47.916500  -0.004956  -0.002758 -31.912400  -0.003528  -0.001329 -41.602000  -4.604050   5.165530 -62.714300  -0.011636  -0.002486 -41.767700   0.002358  -0.000073  13.713300  -2.256650   9.028950  65.206500  14.563500  -1.512150   2.294280  -9.674640   8.104790  -9.661190   2.453220  -4.043390 -40.332200  26.481400  59.299100  23.810100   0.003623  -0.001520   6.905050   0.007673  -0.007067  33.075300  10.927800  16.229600  28.340700  -0.002216   0.007842  19.838500   0.010542   0.001031  28.360700   5.026020   9.219040  42.612800  -0.002030   0.008247  28.380100   0.004321   0.004280  28.140700   3.578420   6.655640  34.607600  -0.004428   0.016475  23.048600   0.004739   0.010631  34.729700   0.301257   0.435851  52.095800   0.011674   0.016146  34.695800   0.008579   0.005456   3.021460  13.408200   0.018114   1.722070   0.730725  10.719600  -2.451420  -1.657900  -1.173330   0.000000   0.000000  -0.000000   5.555340  12.079800  -2.939660  -0.735943   4.012040 -21.363600  -0.179990  -4.971150   3.445250  -0.000000   0.000000   0.000000
 -1.543140  89.527500  -4.837620  -2.125780 -13.008700   1.894270   0.263695   8.453180  -0.583142   0.625888  16.903200  -1.226500   1.332650  -1.479480   0.025504   2.193870  -2.995060   2.601690  -7.387750  -3.318490   0.565188 -69.610100  19.292900  -2.713500  -0.892847  -6.105290 -19.821100  12.743500  -6.193390   1.963540  39.072800  34.237800 -56.191100 -34.672100  -0.000000   0.000130 -12.336100   0.000105  -0.000106 -39.476200   4.165390  -5.040320 -32.447000  -0.001968   0.003219 -22.713800  -0.000847   0.000214 -32.012900  -3.697130   5.890000 -48.304100  -0.003070  -0.002029 -32.170600  -0.000160   0.009616 -31.700700  -3.664950   5.909400 -47.834200  -0.004942  -0.002797 -31.857600  -0.003560  -0.001352 -41.559500  -4.623230   5.195200 -62.653400  -0.011749  -0.002513 -41.727200   0.002367  -0.000213  13.693600  -2.330780   9.083240  64.861600  14.896700  -0.775607   1.912870  -9.354090   8.046950  -8.867100   2.772550  -4.365670 -40.459000  26.521700  59.426600  23.546200   0.003623  -0.001491   6.773110   0.007665  -0.007072  33.012400  10.935400  16.276400  28.293400  -0.002184   0.007781  19.805400   0.010544   0.001018  28.318200   5.050020   9.279140  42.801000  -0.002038   0.008273  28.505500   0.004288   0.004190  28.153200   3.636380   6.761230  34.787600  -0.004440   0.016567  23.168500   0.004719   0.010691  34.811500   0.282120   0.409027  52.217800   0.011657   0.016183  34.777100   0.008569   0.005395   3.061420  13.495800   0.073160   1.719400   0.746331  10.729000  -2.487540  -1.709340  -1.176350   0.000000   0.000000   0.000000   5.582760  12.163500  -2.940560  -0.713532   3.996750 -21.330300  -0.189645  -4.985560   3.492350  -0.000000   0.000000   0.000000
 -1.578320  89.531600  -4.803480  -2.155270 -13.079800   1.804580   0.290256   8.478670  -0.627463   0.687043  16.953600  -1.321010   1.312780  -1.523070   0.025554   2.161200  -3.083610   2.817840  -7.385830  -3.412360   0.702433 -69.594500  19.665800  -3.400610  -0.681929  -5.890970 -19.636700  12.348100  -6.091100   2.208430  39.051800  34.119500 -55.857400 -34.663100   0.000000   0.000106 -12.331600   0.000094  -0.000207 -39.436100   4.102440  -4.972920 -32.406800  -0.001977   0.003078 -22.683900  -0.000859   0.000239 -31.871100  -3.699640   5.926950 -48.093100  -0.003072  -0.002053 -32.030100  -0.000193   0.009796 -31.621500  -3.673900   5.942570 -47.717500  -0.004915  -0.002848 -31.779800  -0.003608  -0.001385 -41.488400  -4.638540   5.225940 -62.549400  -0.011914  -0.002547 -41.658000   0.002378  -0.000406  13.642600  -2.403050   9.162650  64.520400  15.117800  -0.037499   1.540630  -8.953340   8.085870  -8.102920   2.808260  -4.638680 -40.435800  26.391700  59.282500  23.408600   0.003607  -0.001469   6.704330   0.007666  -0.007070  32.990700  10.932100  16.283900  28.275500  -0.002136   0.007687  19.792900   0.010544   0.001007  28.352100   5.005840   9.188100  43.034600  -0.002051   0.008308  28.661100   0.004243   0.004052  28.197900   3.507360   6.513420  35.069100  -0.004453   0.016695  23.356000   0.004686   0.010777  35.097100   0.214631   0.311672  52.645300   0.011632   0.016236  35.061800   0.008553   0.005302   3.101430  13.612400   0.115224   1.718940   0.742246  10.768500  -2.518530  -1.744470  -1.186640  -0.000000   0.000000   0.000000   5.617870  12.245300  -2.955030  -0.699593   4.003150 -21.293100  -0.212372  -4.995590   3.555540   0.000000   0.000000  -0.000000
